<svg width="720" height="420" viewBox="0 0 720 420" fill="none" xmlns="http://www.w3.org/2000/svg">
  <rect width="720" height="420" rx="32" fill="#0B1120"/>
  <rect x="38" y="40" width="320" height="340" rx="24" fill="#111827" stroke="#1F2937"/>
  <rect x="66" y="78" width="122" height="14" rx="7" fill="#8B5CF6"/>
  <rect x="66" y="110" width="264" height="10" rx="5" fill="#334155"/>
  <rect x="66" y="132" width="220" height="10" rx="5" fill="#334155"/>
  <rect x="66" y="170" width="240" height="56" rx="14" fill="#0F172A" stroke="#334155"/>
  <rect x="66" y="246" width="264" height="48" rx="14" fill="#0F172A" stroke="#334155"/>
  <rect x="66" y="314" width="148" height="20" rx="10" fill="#22C55E" fill-opacity="0.85"/>
  <rect x="390" y="70" width="292" height="118" rx="24" fill="#111827" stroke="#1F2937"/>
  <rect x="418" y="98" width="110" height="14" rx="7" fill="#38BDF8"/>
  <rect x="418" y="130" width="224" height="10" rx="5" fill="#334155"/>
  <rect x="418" y="154" width="180" height="10" rx="5" fill="#334155"/>
  <rect x="390" y="212" width="292" height="138" rx="24" fill="#111827" stroke="#1F2937"/>
  <rect x="418" y="242" width="164" height="14" rx="7" fill="#F59E0B"/>
  <rect x="418" y="276" width="228" height="18" rx="9" fill="#1F2937"/>
  <rect x="418" y="306" width="182" height="18" rx="9" fill="#1F2937"/>
  <circle cx="620" cy="286" r="28" fill="#8B5CF6" fill-opacity="0.18" stroke="#8B5CF6"/>
  <path d="M610 286L617 293L631 279" stroke="#C4B5FD" stroke-width="7" stroke-linecap="round" stroke-linejoin="round"/>
</svg>
